<svg xmlns="http://www.w3.org/2000/svg" version="1.1" xmlns:xlink="http://www.w3.org/1999/xlink" xmlns:svgjs="http://svgjs.com/svgjs" width="512" height="512" x="0" y="0" viewBox="0 0 512 512" style="enable-background:new 0 0 512 512" xml:space="preserve" class=""><g><path d="m301.087 261.305 80.413-71.245v133.895zm-170.587-71.245v133.896l80.413-62.651zm133.458 104.142c-2.271 2.012-5.115 3.018-7.958 3.018s-5.687-1.006-7.958-3.018l-18.857-16.707-76.04 59.244h205.711l-76.041-59.244zm-26.486-41.431 18.528 16.416 106.011-93.925h-212.022l87.472 77.5c.004.003.008.006.011.009zm274.528 3.229c0 141.159-114.841 256-256 256s-256-114.841-256-256c0-141.158 114.841-256 256-256s256 114.842 256 256zm-106.5-73.477c0-17.237-13.612-31.261-30.343-31.261h-238.314c-16.731 0-30.343 14.023-30.343 31.261v146.954c0 8.955 3.679 17.036 9.555 22.74l.012.012c5.434 5.27 12.743 8.509 20.776 8.509h238.313c16.731 0 30.343-14.023 30.343-31.261v-146.954z" fill="#ffffff" data-original="#000000" class=""></path></g></svg>